#N canvas 827 239 734 565 12;
#X obj 243 223 oscparse;
#X obj 340 223 bng 25 250 50 0 empty empty empty 17 7 0 10 #e4e4e4 #4d4d4d #373737;
#X obj 243 161 netreceive -u -b 3334;
#X obj 420 630 print;
#N canvas 0 0 450 250 (subpatch) 0;
#X array sample_sound 470400 float 2;
#X coords 0 1 470400 -1 200 140 1;
#X restore 687 166 graph;
#X obj 458 156 bng 25 250 50 0 empty empty empty 17 7 0 10 #e4e4e4 #4d4d4d #373737;
#X obj 458 260 soundfiler;
#X msg 458 229 read -resize \$1 sample_sound;
#X obj 458 196 openpanel;
#X obj 257 725 dac~;
#X obj 243 297 unpack s f f;
#X obj 257 673 tabread4~ sample_sound;
#X obj 507 367 /;
#X msg 525 337 \$1;
#X obj 507 394 * 1000;
#X obj 458 321 t f f;
#X text 557 337 samplerate;
#X floatatom 421 449 5 0 0 0 - - - 0;
#X floatatom 470 449 5 0 0 0 - - - 0;
#X obj 257 630 line~;
#X obj 340 383 bang;
#X obj 397 383 bang;
#X text 360 448 samples;
#X text 507 448 duration (ms);
#X obj 257 507 *;
#X obj 307 507 *;
#X obj 257 591 pack f f;
#X obj 307 543 *;
#X obj 412 509 hsl 128 17 0 0.5 0 0 empty empty empty -2 -8 0 10 #e4e4e4 #4d4d4d #373737 0 1;
#X text 558 508 grain size modifier;
#X text 243 132 OSC Input;
#X text 458 132 Load sound;
#X connect 0 0 10 0;
#X connect 2 0 0 0;
#X connect 2 0 1 0;
#X connect 5 0 8 0;
#X connect 6 0 15 0;
#X connect 6 1 13 0;
#X connect 7 0 6 0;
#X connect 8 0 7 0;
#X connect 10 1 24 0;
#X connect 10 1 20 0;
#X connect 10 2 21 0;
#X connect 10 2 25 0;
#X connect 11 0 9 1;
#X connect 11 0 9 0;
#X connect 12 0 14 0;
#X connect 13 0 12 1;
#X connect 14 0 18 0;
#X connect 15 0 17 0;
#X connect 15 1 12 0;
#X connect 17 0 24 1;
#X connect 18 0 25 1;
#X connect 19 0 11 0;
#X connect 20 0 17 0;
#X connect 21 0 18 0;
#X connect 24 0 26 0;
#X connect 25 0 27 0;
#X connect 26 0 19 0;
#X connect 26 0 3 0;
#X connect 27 0 26 1;
#X connect 28 0 27 1;
